<?xml version="1.0" encoding="UTF-8" standalone="no"?>
<!DOCTYPE svg PUBLIC "-//W3C//DTD SVG 1.1//EN"
 "http://www.w3.org/Graphics/SVG/1.1/DTD/svg11.dtd">
<!-- Generated by graphviz version 5.0.0 (20220707.1540)
 -->
<!-- Title: mycloudapp Pages: 1 -->
<svg width="1164pt" height="990pt"
 viewBox="0.00 0.00 1164.00 990.00" xmlns="http://www.w3.org/2000/svg" xmlns:xlink="http://www.w3.org/1999/xlink">
<g id="graph0" class="graph" transform="scale(1 1) rotate(0) translate(144 846)">
<title>mycloudapp</title>
<polygon fill="white" stroke="transparent" points="-144,144 -144,-846 1020,-846 1020,144 -144,144"/>
<text text-anchor="middle" x="438" y="-9" font-family="Sans-Serif" font-size="15.00" fill="#2d3436">mycloudapp</text>
<!-- 75efc94089794caeb14643cadb34fa34 -->
<g id="node1" class="node">
<title>75efc94089794caeb14643cadb34fa34</title>
<image xlink:href="C:\Python\lib\site-packages\resources/digitalocean/compute\docker.png" width="101px" height="101px" preserveAspectRatio="xMinYMin meet" x="0" y="-414"/>
<text text-anchor="middle" x="50.5" y="-298.6" font-family="Sans-Serif" font-size="13.00" fill="#2d3436">OnPrem Docker</text>
</g>
<!-- cf7d56360645485bb3db3a5a900cb24b -->
<g id="node2" class="node">
<title>cf7d56360645485bb3db3a5a900cb24b</title>
<image xlink:href="C:\Python\lib\site-packages\resources/digitalocean/compute\containers.png" width="101px" height="101px" preserveAspectRatio="xMinYMin meet" x="155" y="-504"/>
<text text-anchor="middle" x="205.5" y="-388.6" font-family="Sans-Serif" font-size="13.00" fill="#2d3436">Front&#45;End</text>
</g>
<!-- 75efc94089794caeb14643cadb34fa34&#45;&gt;cf7d56360645485bb3db3a5a900cb24b -->
<g id="edge1" class="edge">
<title>75efc94089794caeb14643cadb34fa34&#45;&gt;cf7d56360645485bb3db3a5a900cb24b</title>
<path fill="none" stroke="#7b8894" d="M101.25,-408.5C101.25,-408.5 144.9,-408.5 144.9,-408.5"/>
<polygon fill="#7b8894" stroke="#7b8894" points="144.9,-412 154.9,-408.5 144.9,-405 144.9,-412"/>
</g>
<!-- e749209181ba4c8ab60976b2877d7fea -->
<g id="node3" class="node">
<title>e749209181ba4c8ab60976b2877d7fea</title>
<image xlink:href="C:\Python\lib\site-packages\resources/digitalocean/compute\containers.png" width="101px" height="101px" preserveAspectRatio="xMinYMin meet" x="155" y="-324"/>
<text text-anchor="middle" x="205.5" y="-208.6" font-family="Sans-Serif" font-size="13.00" fill="#2d3436">Back&#45;End</text>
</g>
<!-- 75efc94089794caeb14643cadb34fa34&#45;&gt;e749209181ba4c8ab60976b2877d7fea -->
<g id="edge2" class="edge">
<title>75efc94089794caeb14643cadb34fa34&#45;&gt;e749209181ba4c8ab60976b2877d7fea</title>
<path fill="none" stroke="#7b8894" d="M101.25,-318.5C101.25,-318.5 144.9,-318.5 144.9,-318.5"/>
<polygon fill="#7b8894" stroke="#7b8894" points="144.9,-322 154.9,-318.5 144.9,-315 144.9,-322"/>
</g>
<!-- d3910b3f960945f39a814be38396fa47 -->
<g id="node8" class="node">
<title>d3910b3f960945f39a814be38396fa47</title>
<image xlink:href="C:\Python\lib\site-packages\resources/digitalocean/compute\k8s-cluster.png" width="101px" height="101px" preserveAspectRatio="xMinYMin meet" x="310" y="-414"/>
<text text-anchor="middle" x="360.5" y="-298.6" font-family="Sans-Serif" font-size="13.00" fill="#2d3436">MyCloudApp&#45;k8s</text>
</g>
<!-- cf7d56360645485bb3db3a5a900cb24b&#45;&gt;d3910b3f960945f39a814be38396fa47 -->
<g id="edge3" class="edge">
<title>cf7d56360645485bb3db3a5a900cb24b&#45;&gt;d3910b3f960945f39a814be38396fa47</title>
<path fill="none" stroke="#7b8894" d="M256.25,-408.5C256.25,-408.5 299.9,-408.5 299.9,-408.5"/>
<polygon fill="#7b8894" stroke="#7b8894" points="299.9,-412 309.9,-408.5 299.9,-405 299.9,-412"/>
</g>
<!-- e749209181ba4c8ab60976b2877d7fea&#45;&gt;d3910b3f960945f39a814be38396fa47 -->
<g id="edge4" class="edge">
<title>e749209181ba4c8ab60976b2877d7fea&#45;&gt;d3910b3f960945f39a814be38396fa47</title>
<path fill="none" stroke="#7b8894" d="M256.25,-318.5C256.25,-318.5 299.9,-318.5 299.9,-318.5"/>
<polygon fill="#7b8894" stroke="#7b8894" points="299.9,-322 309.9,-318.5 299.9,-315 299.9,-322"/>
</g>
<!-- 5cf16c0a663e47e4b50607033a9658e2 -->
<g id="node4" class="node">
<title>5cf16c0a663e47e4b50607033a9658e2</title>
<image xlink:href="C:\Python\lib\site-packages\resources/digitalocean/compute\k8s-node.png" width="101px" height="101px" preserveAspectRatio="xMinYMin meet" x="775" y="-684"/>
<text text-anchor="middle" x="825.5" y="-568.6" font-family="Sans-Serif" font-size="13.00" fill="#2d3436">Function App</text>
</g>
<!-- 48c41dd3521b47059dafbe417855f8a4 -->
<g id="node5" class="node">
<title>48c41dd3521b47059dafbe417855f8a4</title>
<image xlink:href="C:\Python\lib\site-packages\resources/digitalocean/compute\k8s-node.png" width="101px" height="101px" preserveAspectRatio="xMinYMin meet" x="775" y="-504"/>
<text text-anchor="middle" x="825.5" y="-388.6" font-family="Sans-Serif" font-size="13.00" fill="#2d3436">Cronjob</text>
</g>
<!-- 6ef819a5ac724cb887b7b3a68242f2f0 -->
<g id="node6" class="node">
<title>6ef819a5ac724cb887b7b3a68242f2f0</title>
<image xlink:href="C:\Python\lib\site-packages\resources/digitalocean/compute\k8s-node.png" width="101px" height="101px" preserveAspectRatio="xMinYMin meet" x="775" y="-324"/>
<text text-anchor="middle" x="825.5" y="-208.6" font-family="Sans-Serif" font-size="13.00" fill="#2d3436">Batch Processing</text>
</g>
<!-- a15bcd24a15348c794b48d1d8c1edffb -->
<g id="node7" class="node">
<title>a15bcd24a15348c794b48d1d8c1edffb</title>
<image xlink:href="C:\Python\lib\site-packages\resources/digitalocean/compute\k8s-node.png" width="101px" height="101px" preserveAspectRatio="xMinYMin meet" x="775" y="-144"/>
<text text-anchor="middle" x="825.5" y="-28.6" font-family="Sans-Serif" font-size="13.00" fill="#2d3436">File Delivery System</text>
</g>
<!-- a6457f407d2040d0b681bd15901769a6 -->
<g id="node9" class="node">
<title>a6457f407d2040d0b681bd15901769a6</title>
<image xlink:href="C:\Python\lib\site-packages\resources/digitalocean/compute\k8s-node-pool.png" width="101px" height="101px" preserveAspectRatio="xMinYMin meet" x="465" y="-504"/>
<text text-anchor="middle" x="515.5" y="-388.6" font-family="Sans-Serif" font-size="13.00" fill="#2d3436">Control Pool, 16 vCPU</text>
</g>
<!-- d3910b3f960945f39a814be38396fa47&#45;&gt;a6457f407d2040d0b681bd15901769a6 -->
<g id="edge5" class="edge">
<title>d3910b3f960945f39a814be38396fa47&#45;&gt;a6457f407d2040d0b681bd15901769a6</title>
<path fill="none" stroke="#7b8894" d="M421.25,-408.5C421.25,-408.5 464.9,-408.5 464.9,-408.5"/>
<polygon fill="#7b8894" stroke="#7b8894" points="421.25,-405 411.25,-408.5 421.25,-412 421.25,-405"/>
</g>
<!-- 4d84aef98d0e40ee8afee9e0c05e4801 -->
<g id="node10" class="node">
<title>4d84aef98d0e40ee8afee9e0c05e4801</title>
<image xlink:href="C:\Python\lib\site-packages\resources/digitalocean/compute\k8s-node-pool.png" width="101px" height="101px" preserveAspectRatio="xMinYMin meet" x="465" y="-324"/>
<text text-anchor="middle" x="515.5" y="-208.6" font-family="Sans-Serif" font-size="13.00" fill="#2d3436">Worker Pool, 64 vCPU</text>
</g>
<!-- d3910b3f960945f39a814be38396fa47&#45;&gt;4d84aef98d0e40ee8afee9e0c05e4801 -->
<g id="edge6" class="edge">
<title>d3910b3f960945f39a814be38396fa47&#45;&gt;4d84aef98d0e40ee8afee9e0c05e4801</title>
<path fill="none" stroke="#7b8894" d="M421.25,-318.5C421.25,-318.5 464.9,-318.5 464.9,-318.5"/>
<polygon fill="#7b8894" stroke="#7b8894" points="421.25,-315 411.25,-318.5 421.25,-322 421.25,-315"/>
</g>
<!-- e2bd219ca75d46c088c71ee8d0bd7287 -->
<g id="node11" class="node">
<title>e2bd219ca75d46c088c71ee8d0bd7287</title>
<image xlink:href="C:\Python\lib\site-packages\resources/digitalocean/network\vpc.png" width="101px" height="101px" preserveAspectRatio="xMinYMin meet" x="620" y="-414"/>
<text text-anchor="middle" x="670.5" y="-298.6" font-family="Sans-Serif" font-size="13.00" fill="#2d3436">VPC</text>
</g>
<!-- a6457f407d2040d0b681bd15901769a6&#45;&gt;e2bd219ca75d46c088c71ee8d0bd7287 -->
<g id="edge7" class="edge">
<title>a6457f407d2040d0b681bd15901769a6&#45;&gt;e2bd219ca75d46c088c71ee8d0bd7287</title>
<path fill="none" stroke="#7b8894" d="M566.25,-408.5C566.25,-408.5 609.9,-408.5 609.9,-408.5"/>
<polygon fill="#7b8894" stroke="#7b8894" points="609.9,-412 619.9,-408.5 609.9,-405 609.9,-412"/>
</g>
<!-- 4d84aef98d0e40ee8afee9e0c05e4801&#45;&gt;e2bd219ca75d46c088c71ee8d0bd7287 -->
<g id="edge8" class="edge">
<title>4d84aef98d0e40ee8afee9e0c05e4801&#45;&gt;e2bd219ca75d46c088c71ee8d0bd7287</title>
<path fill="none" stroke="#7b8894" d="M566.25,-318.5C566.25,-318.5 609.9,-318.5 609.9,-318.5"/>
<polygon fill="#7b8894" stroke="#7b8894" points="609.9,-322 619.9,-318.5 609.9,-315 609.9,-322"/>
</g>
<!-- e2bd219ca75d46c088c71ee8d0bd7287&#45;&gt;5cf16c0a663e47e4b50607033a9658e2 -->
<g id="edge9" class="edge">
<title>e2bd219ca75d46c088c71ee8d0bd7287&#45;&gt;5cf16c0a663e47e4b50607033a9658e2</title>
<path fill="none" stroke="#7b8894" d="M671,-442.33C671,-442.33 671,-633.5 671,-633.5 671,-633.5 729.85,-633.5 774.91,-633.5"/>
<polygon fill="#7b8894" stroke="#7b8894" points="674.5,-442.33 671,-432.33 667.5,-442.33 674.5,-442.33"/>
</g>
<!-- e2bd219ca75d46c088c71ee8d0bd7287&#45;&gt;48c41dd3521b47059dafbe417855f8a4 -->
<g id="edge10" class="edge">
<title>e2bd219ca75d46c088c71ee8d0bd7287&#45;&gt;48c41dd3521b47059dafbe417855f8a4</title>
<path fill="none" stroke="#7b8894" d="M731.25,-408.5C731.25,-408.5 774.9,-408.5 774.9,-408.5"/>
<polygon fill="#7b8894" stroke="#7b8894" points="731.25,-405 721.25,-408.5 731.25,-412 731.25,-405"/>
</g>
<!-- e2bd219ca75d46c088c71ee8d0bd7287&#45;&gt;6ef819a5ac724cb887b7b3a68242f2f0 -->
<g id="edge11" class="edge">
<title>e2bd219ca75d46c088c71ee8d0bd7287&#45;&gt;6ef819a5ac724cb887b7b3a68242f2f0</title>
<path fill="none" stroke="#7b8894" d="M731.25,-318.5C731.25,-318.5 774.9,-318.5 774.9,-318.5"/>
<polygon fill="#7b8894" stroke="#7b8894" points="731.25,-315 721.25,-318.5 731.25,-322 731.25,-315"/>
</g>
<!-- e2bd219ca75d46c088c71ee8d0bd7287&#45;&gt;a15bcd24a15348c794b48d1d8c1edffb -->
<g id="edge12" class="edge">
<title>e2bd219ca75d46c088c71ee8d0bd7287&#45;&gt;a15bcd24a15348c794b48d1d8c1edffb</title>
<path fill="none" stroke="#7b8894" d="M671,-284.67C671,-284.67 671,-93.5 671,-93.5 671,-93.5 729.85,-93.5 774.91,-93.5"/>
<polygon fill="#7b8894" stroke="#7b8894" points="667.5,-284.67 671,-294.67 674.5,-284.67 667.5,-284.67"/>
</g>
</g>
</svg>
