<?xml version="1.0" encoding="UTF-8" standalone="no"?>
<!DOCTYPE svg PUBLIC "-//W3C//DTD SVG 1.1//EN"
 "http://www.w3.org/Graphics/SVG/1.1/DTD/svg11.dtd">
<!-- Generated by graphviz version 5.0.0 (20220707.1540)
 -->
<!-- Title: digitalocean Pages: 1 -->
<svg width="1009pt" height="630pt"
 viewBox="0.00 0.00 1009.00 630.00" xmlns="http://www.w3.org/2000/svg" xmlns:xlink="http://www.w3.org/1999/xlink">
<g id="graph0" class="graph" transform="scale(1 1) rotate(0) translate(144 486)">
<title>digitalocean</title>
<polygon fill="white" stroke="transparent" points="-144,144 -144,-486 865,-486 865,144 -144,144"/>
<text text-anchor="middle" x="360.5" y="-9" font-family="Sans-Serif" font-size="15.00" fill="#2d3436">digitalocean</text>
<!-- af3a08e830e545348018cd63cfb0ae38 -->
<g id="node1" class="node">
<title>af3a08e830e545348018cd63cfb0ae38</title>
<image xlink:href="C:\Python\lib\site-packages\resources/digitalocean/compute\docker.png" width="101px" height="101px" preserveAspectRatio="xMinYMin meet" x="0" y="-234"/>
<text text-anchor="middle" x="50.5" y="-118.6" font-family="Sans-Serif" font-size="13.00" fill="#2d3436">OnPrem Docker</text>
</g>
<!-- 1d72723b83c24650806c87eb7d6cf888 -->
<g id="node2" class="node">
<title>1d72723b83c24650806c87eb7d6cf888</title>
<image xlink:href="C:\Python\lib\site-packages\resources/digitalocean/compute\containers.png" width="101px" height="101px" preserveAspectRatio="xMinYMin meet" x="155" y="-324"/>
<text text-anchor="middle" x="205.5" y="-208.6" font-family="Sans-Serif" font-size="13.00" fill="#2d3436">Front&#45;End</text>
</g>
<!-- af3a08e830e545348018cd63cfb0ae38&#45;&gt;1d72723b83c24650806c87eb7d6cf888 -->
<g id="edge1" class="edge">
<title>af3a08e830e545348018cd63cfb0ae38&#45;&gt;1d72723b83c24650806c87eb7d6cf888</title>
<path fill="none" stroke="#7b8894" d="M101.25,-228.5C101.25,-228.5 144.9,-228.5 144.9,-228.5"/>
<polygon fill="#7b8894" stroke="#7b8894" points="144.9,-232 154.9,-228.5 144.9,-225 144.9,-232"/>
</g>
<!-- 5d94318b716c4649b4374d76523781ac -->
<g id="node3" class="node">
<title>5d94318b716c4649b4374d76523781ac</title>
<image xlink:href="C:\Python\lib\site-packages\resources/digitalocean/compute\containers.png" width="101px" height="101px" preserveAspectRatio="xMinYMin meet" x="155" y="-144"/>
<text text-anchor="middle" x="205.5" y="-28.6" font-family="Sans-Serif" font-size="13.00" fill="#2d3436">Back&#45;End</text>
</g>
<!-- af3a08e830e545348018cd63cfb0ae38&#45;&gt;5d94318b716c4649b4374d76523781ac -->
<g id="edge2" class="edge">
<title>af3a08e830e545348018cd63cfb0ae38&#45;&gt;5d94318b716c4649b4374d76523781ac</title>
<path fill="none" stroke="#7b8894" d="M101.25,-138.5C101.25,-138.5 144.9,-138.5 144.9,-138.5"/>
<polygon fill="#7b8894" stroke="#7b8894" points="144.9,-142 154.9,-138.5 144.9,-135 144.9,-142"/>
</g>
<!-- 70ab3b2086944e4f8818ef7b2c794d2f -->
<g id="node4" class="node">
<title>70ab3b2086944e4f8818ef7b2c794d2f</title>
<image xlink:href="C:\Python\lib\site-packages\resources/digitalocean/compute\k8s-cluster.png" width="101px" height="101px" preserveAspectRatio="xMinYMin meet" x="310" y="-234"/>
<text text-anchor="middle" x="360.5" y="-118.6" font-family="Sans-Serif" font-size="13.00" fill="#2d3436">MyCloudApp</text>
</g>
<!-- 1d72723b83c24650806c87eb7d6cf888&#45;&gt;70ab3b2086944e4f8818ef7b2c794d2f -->
<g id="edge3" class="edge">
<title>1d72723b83c24650806c87eb7d6cf888&#45;&gt;70ab3b2086944e4f8818ef7b2c794d2f</title>
<path fill="none" stroke="#7b8894" d="M256.25,-228.5C256.25,-228.5 299.9,-228.5 299.9,-228.5"/>
<polygon fill="#7b8894" stroke="#7b8894" points="299.9,-232 309.9,-228.5 299.9,-225 299.9,-232"/>
</g>
<!-- 5d94318b716c4649b4374d76523781ac&#45;&gt;70ab3b2086944e4f8818ef7b2c794d2f -->
<g id="edge4" class="edge">
<title>5d94318b716c4649b4374d76523781ac&#45;&gt;70ab3b2086944e4f8818ef7b2c794d2f</title>
<path fill="none" stroke="#7b8894" d="M256.25,-138.5C256.25,-138.5 299.9,-138.5 299.9,-138.5"/>
<polygon fill="#7b8894" stroke="#7b8894" points="299.9,-142 309.9,-138.5 299.9,-135 299.9,-142"/>
</g>
<!-- 7fe99b789b6e4d959ee5d77897a41c4a -->
<g id="node5" class="node">
<title>7fe99b789b6e4d959ee5d77897a41c4a</title>
<image xlink:href="C:\Python\lib\site-packages\resources/digitalocean/compute\k8s-node-pool.png" width="101px" height="101px" preserveAspectRatio="xMinYMin meet" x="465" y="-324"/>
<text text-anchor="middle" x="515.5" y="-208.6" font-family="Sans-Serif" font-size="13.00" fill="#2d3436">Control Pool</text>
</g>
<!-- 70ab3b2086944e4f8818ef7b2c794d2f&#45;&gt;7fe99b789b6e4d959ee5d77897a41c4a -->
<g id="edge5" class="edge">
<title>70ab3b2086944e4f8818ef7b2c794d2f&#45;&gt;7fe99b789b6e4d959ee5d77897a41c4a</title>
<path fill="none" stroke="#7b8894" d="M421.25,-228.5C421.25,-228.5 464.9,-228.5 464.9,-228.5"/>
<polygon fill="#7b8894" stroke="#7b8894" points="421.25,-225 411.25,-228.5 421.25,-232 421.25,-225"/>
</g>
<!-- 9b753de0d0864ac0aa9bf5218ae7e356 -->
<g id="node6" class="node">
<title>9b753de0d0864ac0aa9bf5218ae7e356</title>
<image xlink:href="C:\Python\lib\site-packages\resources/digitalocean/compute\k8s-node-pool.png" width="101px" height="101px" preserveAspectRatio="xMinYMin meet" x="465" y="-144"/>
<text text-anchor="middle" x="515.5" y="-28.6" font-family="Sans-Serif" font-size="13.00" fill="#2d3436">Worker Pool</text>
</g>
<!-- 70ab3b2086944e4f8818ef7b2c794d2f&#45;&gt;9b753de0d0864ac0aa9bf5218ae7e356 -->
<g id="edge6" class="edge">
<title>70ab3b2086944e4f8818ef7b2c794d2f&#45;&gt;9b753de0d0864ac0aa9bf5218ae7e356</title>
<path fill="none" stroke="#7b8894" d="M421.25,-138.5C421.25,-138.5 464.9,-138.5 464.9,-138.5"/>
<polygon fill="#7b8894" stroke="#7b8894" points="421.25,-135 411.25,-138.5 421.25,-142 421.25,-135"/>
</g>
<!-- 0840fa1321c2494aae45f392cfe02ad4 -->
<g id="node7" class="node">
<title>0840fa1321c2494aae45f392cfe02ad4</title>
<image xlink:href="C:\Python\lib\site-packages\resources/digitalocean/compute\k8s-node.png" width="101px" height="101px" preserveAspectRatio="xMinYMin meet" x="620" y="-234"/>
<text text-anchor="middle" x="670.5" y="-118.6" font-family="Sans-Serif" font-size="13.00" fill="#2d3436">Live Containers</text>
</g>
<!-- 7fe99b789b6e4d959ee5d77897a41c4a&#45;&gt;0840fa1321c2494aae45f392cfe02ad4 -->
<g id="edge7" class="edge">
<title>7fe99b789b6e4d959ee5d77897a41c4a&#45;&gt;0840fa1321c2494aae45f392cfe02ad4</title>
<path fill="none" stroke="#7b8894" d="M576.25,-228.5C576.25,-228.5 619.9,-228.5 619.9,-228.5"/>
<polygon fill="#7b8894" stroke="#7b8894" points="576.25,-225 566.25,-228.5 576.25,-232 576.25,-225"/>
</g>
<!-- 9b753de0d0864ac0aa9bf5218ae7e356&#45;&gt;0840fa1321c2494aae45f392cfe02ad4 -->
<g id="edge8" class="edge">
<title>9b753de0d0864ac0aa9bf5218ae7e356&#45;&gt;0840fa1321c2494aae45f392cfe02ad4</title>
<path fill="none" stroke="#7b8894" d="M576.25,-138.5C576.25,-138.5 619.9,-138.5 619.9,-138.5"/>
<polygon fill="#7b8894" stroke="#7b8894" points="576.25,-135 566.25,-138.5 576.25,-142 576.25,-135"/>
</g>
</g>
</svg>
